<svg xmlns="http://www.w3.org/2000/svg" xmlns:xlink="http://www.w3.org/1999/xlink" version="1.1" id="Livello_2" x="0px" y="0px" viewBox="-199 -45 300 170" style="enable-background:new -199 -45 300 170;" xml:space="preserve" width="1920"  height="916" >
<style type="text/css">
	.st0{fill:#FFFFFF;}
	.st1{fill:#CF2630;}
	.st2{fill:none;stroke:#FFFFFF;stroke-width:0.146;stroke-miterlimit:10;}
	.st3{fill:#BDBBBB;}
</style>
<g>
	<path class="st0" d="M-103.3-14.9V42c0,28-17.6,40.8-44.5,40.8c-26.9,0-44.5-12.7-44.5-40.8v-56.8h34.9v53.5   c0,7.5,0.3,14.1,9.6,14.1c9.3,0,9.6-6.6,9.6-14.1v-53.5H-103.3z"/>
	<path class="st0" d="M-57.3,28.1h3.4c6.1,0,12.7-1,12.7-8.8c0-7.5-7.1-7.9-12.9-7.9h-3.3V28.1z M-91-14.9h44.2   c22.4,0,39,11.5,39,35.3c0,19.6-12.2,31.9-31.7,31.9h-17.8v28.9H-91V-14.9z"/>
	<path class="st0" d="M46.2,81.3C73.7,81.3,96,59,96,31.5C96,4,73.7-18.3,46.2-18.3C18.7-18.3-3.6,4-3.6,31.5   C-3.6,59,18.7,81.3,46.2,81.3"/>
	<path class="st0" d="M20,106.1c0-2.6-2-4.8-4.8-4.8c-2.8,0-4.8,2.2-4.8,4.8c0,2.7,2.2,4.8,4.8,4.8C17.9,110.9,20,108.8,20,106.1    M21.5,106.1c0,3.5-2.8,6.2-6.2,6.2c-3.5,0-6.2-2.7-6.2-6.2c0-3.4,2.8-6.2,6.2-6.2C18.7,99.9,21.5,102.7,21.5,106.1"/>
	<path class="st0" d="M24.4,105.8h0.5c1.5,0,3.2-0.3,3.2-2.2c0-1.9-1.8-2.1-3.2-2.1h-0.4V105.8z M30.4,112h-1.8l-3.5-5h-0.6v5H23   v-11.9h1.8c1.1,0,2.2,0,3.1,0.6c1,0.6,1.6,1.7,1.6,2.8c0,1.7-1.1,3.1-2.9,3.3L30.4,112z"/>
	<polygon class="st0" points="-2.9,100.1 3.5,100.1 3.5,101.5 -1.4,101.5 -1.4,104.8 3.3,104.8 3.3,106.2 -1.4,106.2 -1.4,110.7    3.5,110.7 3.5,112 -2.9,112  "/>
	<polygon class="st0" points="-6.9,112 -8.4,112 -8.4,101.5 -11.2,101.5 -11.2,100.1 -4.1,100.1 -4.1,101.5 -6.9,101.5  "/>
	<polygon class="st0" points="-22.7,99.5 -13.7,108.9 -13.7,100.1 -12.2,100.1 -12.2,112.5 -21.2,103.1 -21.2,112 -22.7,112  "/>
	<path class="st0" d="M-25.4,106.1c0-2.6-2-4.8-4.8-4.8c-2.8,0-4.8,2.2-4.8,4.8c0,2.7,2.2,4.8,4.8,4.8   C-27.6,110.9-25.4,108.8-25.4,106.1 M-24,106.1c0,3.5-2.8,6.2-6.2,6.2c-3.4,0-6.2-2.7-6.2-6.2c0-3.4,2.8-6.2,6.2-6.2   C-26.8,99.9-24,102.7-24,106.1"/>
	<polygon class="st0" points="-47,104.2 -47.1,104.2 -48.5,112 -50,112 -47.6,99.6 -43.5,109 -39.4,99.6 -36.9,112 -38.5,112    -39.9,104.2 -39.9,104.2 -43.5,112.3  "/>
	<polygon class="st0" points="-57.3,100.1 -50.9,100.1 -50.9,101.5 -55.8,101.5 -55.8,104.8 -51,104.8 -51,106.2 -55.8,106.2    -55.8,110.7 -50.9,110.7 -50.9,112 -57.3,112  "/>
	<rect x="-61" y="100.1" class="st0" width="1.5" height="11.9"/>
	<path class="st0" d="M-67.3,105.7h0.5c1.5,0,3.2-0.3,3.2-2.2c0-1.9-1.8-2.1-3.2-2.1h-0.4V105.7z M-67.3,112h-1.5v-11.9h1.7   c3.7,0,4.8,1.3,4.8,3.4c0,2.5-1.9,3.5-4.2,3.5h-0.9V112z"/>
	<polygon class="st0" points="-77.9,110.7 -74.3,110.7 -74.3,112 -79.4,112 -79.4,100.1 -77.9,100.1  "/>
	<polygon class="st0" points="-87.7,100.1 -81.3,100.1 -81.3,101.5 -86.2,101.5 -86.2,104.8 -81.4,104.8 -81.4,106.2 -86.2,106.2    -86.2,110.7 -81.3,110.7 -81.3,112 -87.7,112  "/>
	<path class="st0" d="M-96.8,110.7h0.5c3,0,5.7-1.1,5.7-4.6c0-3.5-2.6-4.6-5.7-4.6h-0.5V110.7z M-98.3,100.1h2.5   c3.7,0,6.7,1.9,6.7,5.9c0,4.1-3,6-6.7,6h-2.4V100.1z"/>
	<path class="st0" d="M-109.4,102.9l-2.1,4.8h4.2L-109.4,102.9z M-110.4,96.3l2,2.6l-0.7,0.4l-2.6-2.4L-110.4,96.3z M-112.2,109   l-1.4,3h-1.6l5.7-12.4l5.7,12.4h-1.6l-1.4-3H-112.2z"/>
	<polygon class="st0" points="-116.6,112 -118.1,112 -118.1,101.5 -120.9,101.5 -120.9,100.1 -113.7,100.1 -113.7,101.5    -116.6,101.5  "/>
	<rect x="-123.5" y="100.1" class="st0" width="1.5" height="11.9"/>
	<path class="st0" d="M-126.6,102.4c-0.4-0.7-1-1.1-1.9-1.1c-0.9,0-2,0.6-2,1.7c0,0.9,0.9,1.4,1.7,1.7l0.9,0.3c1.7,0.7,3,1.6,3,3.6   c0,2.2-1.7,3.7-3.8,3.7c-1.9,0-3.4-1.4-3.7-3.3l1.5-0.3c0,1.3,1,2.3,2.3,2.3c1.3,0,2.2-1.1,2.2-2.3c0-1.3-1-1.8-2.1-2.3l-0.8-0.3   c-1.4-0.6-2.6-1.4-2.6-3c0-1.9,1.7-3.1,3.5-3.1c1.3,0,2.4,0.6,3.1,1.8L-126.6,102.4z"/>
	<path class="st0" d="M-139,105.8h0.5c1.5,0,3.2-0.3,3.2-2.2c0-1.9-1.8-2.1-3.2-2.1h-0.4V105.8z M-133.1,112h-1.8l-3.5-5h-0.6v5   h-1.5v-11.9h1.8c1.1,0,2.2,0,3.1,0.6c1,0.6,1.6,1.7,1.6,2.8c0,1.7-1.1,3.1-2.9,3.3L-133.1,112z"/>
	<polygon class="st0" points="-148.8,100.1 -142.3,100.1 -142.3,101.5 -147.3,101.5 -147.3,104.8 -142.5,104.8 -142.5,106.2    -147.3,106.2 -147.3,110.7 -142.3,110.7 -142.3,112 -148.8,112  "/>
	<polygon class="st0" points="-154.9,108.9 -151.4,100.1 -149.8,100.1 -154.9,112.7 -160.1,100.1 -158.5,100.1  "/>
	<polygon class="st0" points="-175.1,99.5 -166.1,108.9 -166.1,100.1 -164.6,100.1 -164.6,112.5 -173.6,103.1 -173.6,112    -175.1,112  "/>
	<rect x="-162.6" y="100.1" class="st0" width="1.5" height="11.9"/>
	<path class="st0" d="M-184.2,100.1v7c0,1.9,0.6,3.7,2.9,3.7c2.3,0,2.9-1.8,2.9-3.7v-7h1.5v7.5c0,2.6-1.6,4.6-4.4,4.6   c-2.7,0-4.4-2-4.4-4.6v-7.5H-184.2z"/>
	<rect x="31.5" y="100.1" class="st0" width="1.5" height="11.9"/>
	<polygon class="st0" points="35.2,100.1 41.6,100.1 41.6,101.5 36.7,101.5 36.7,104.8 41.5,104.8 41.5,106.2 36.7,106.2    36.7,110.7 41.6,110.7 41.6,112 35.2,112  "/>
	<polygon class="st0" points="43.3,99.5 52.2,108.9 52.2,100.1 53.7,100.1 53.7,112.5 44.8,103.1 44.8,112 43.3,112  "/>
	<path class="st0" d="M66.2,102.9l-2.1,4.8h4.2L66.2,102.9z M63.5,109l-1.4,3h-1.6l5.7-12.4l5.7,12.4h-1.6l-1.4-3H63.5z"/>
	<polygon class="st0" points="74.4,110.7 78,110.7 78,112 72.9,112 72.9,100.1 74.4,100.1  "/>
	<polygon class="st0" points="79,100.1 85.4,100.1 85.4,101.5 80.5,101.5 80.5,104.8 85.2,104.8 85.2,106.2 80.5,106.2 80.5,110.7    85.4,110.7 85.4,112 79,112  "/>
	<polygon class="st0" points="59.1,112 57.6,112 57.6,101.5 54.7,101.5 54.7,100.1 61.9,100.1 61.9,101.5 59.1,101.5  "/>
	<path class="st1" d="M56.6-2.4c0,2.1-1.7,3.9-3.9,3.9c-2.1,0-3.9-1.7-3.9-3.9c0-2.1,1.7-3.9,3.9-3.9C54.9-6.3,56.6-4.5,56.6-2.4"/>
	<circle class="st2" cx="52.8" cy="-2.4" r="3.9"/>
	<path class="st1" d="M56.6,5.3c0,2.1-1.7,3.9-3.9,3.9c-2.1,0-3.9-1.7-3.9-3.9c0-2.1,1.7-3.9,3.9-3.9C54.9,1.5,56.6,3.2,56.6,5.3"/>
	<circle class="st2" cx="52.8" cy="5.3" r="3.9"/>
	<path class="st1" d="M56.6,13c0,2.1-1.7,3.9-3.9,3.9c-2.1,0-3.9-1.7-3.9-3.9c0-2.1,1.7-3.9,3.9-3.9C54.9,9.2,56.6,10.9,56.6,13"/>
	<circle class="st2" cx="52.8" cy="13" r="3.9"/>
	<path class="st1" d="M56.6,20.7c0,2.1-1.7,3.9-3.9,3.9c-2.1,0-3.9-1.7-3.9-3.9c0-2.1,1.7-3.9,3.9-3.9   C54.9,16.9,56.6,18.6,56.6,20.7"/>
	<circle class="st2" cx="52.8" cy="20.7" r="3.9"/>
	<path class="st1" d="M64.3,13c0,2.1-1.7,3.9-3.9,3.9c-2.1,0-3.9-1.7-3.9-3.9c0-2.1,1.7-3.9,3.9-3.9C62.6,9.2,64.3,10.9,64.3,13"/>
	<circle class="st2" cx="60.5" cy="13" r="3.9"/>
	<path class="st1" d="M64.3,20.7c0,2.1-1.7,3.9-3.9,3.9c-2.1,0-3.9-1.7-3.9-3.9c0-2.1,1.7-3.9,3.9-3.9   C62.6,16.9,64.3,18.6,64.3,20.7"/>
	<circle class="st2" cx="60.5" cy="20.7" r="3.9"/>
	<path class="st1" d="M56.6,28.4c0,2.1-1.7,3.9-3.9,3.9c-2.1,0-3.9-1.7-3.9-3.9c0-2.1,1.7-3.9,3.9-3.9   C54.9,24.6,56.6,26.3,56.6,28.4"/>
	<circle class="st2" cx="52.8" cy="28.4" r="3.9"/>
	<path class="st1" d="M56.6,36.1c0,2.1-1.7,3.9-3.9,3.9c-2.1,0-3.9-1.7-3.9-3.9c0-2.1,1.7-3.9,3.9-3.9C54.9,32.3,56.6,34,56.6,36.1"/>
	<circle class="st2" cx="52.8" cy="36.1" r="3.9"/>
	<path class="st1" d="M56.6,43.8c0,2.1-1.7,3.9-3.9,3.9c-2.1,0-3.9-1.7-3.9-3.9c0-2.1,1.7-3.9,3.9-3.9C54.9,40,56.6,41.7,56.6,43.8"/>
	<circle class="st2" cx="52.8" cy="43.8" r="3.9"/>
	<path class="st1" d="M56.6,51.5c0,2.1-1.7,3.9-3.9,3.9c-2.1,0-3.9-1.7-3.9-3.9c0-2.1,1.7-3.9,3.9-3.9   C54.9,47.7,56.6,49.4,56.6,51.5"/>
	<circle class="st2" cx="52.8" cy="51.5" r="3.9"/>
	<path class="st1" d="M64.3,36.1c0,2.1-1.7,3.9-3.9,3.9c-2.1,0-3.9-1.7-3.9-3.9c0-2.1,1.7-3.9,3.9-3.9C62.6,32.3,64.3,34,64.3,36.1"/>
	<circle class="st2" cx="60.5" cy="36.1" r="3.9"/>
	<path class="st1" d="M64.3,51.5c0,2.1-1.7,3.9-3.9,3.9c-2.1,0-3.9-1.7-3.9-3.9c0-2.1,1.7-3.9,3.9-3.9   C62.6,47.7,64.3,49.4,64.3,51.5"/>
	<circle class="st2" cx="60.5" cy="51.5" r="3.9"/>
	<path class="st1" d="M72,51.5c0,2.1-1.7,3.9-3.9,3.9c-2.1,0-3.9-1.7-3.9-3.9c0-2.1,1.7-3.9,3.9-3.9C70.3,47.7,72,49.4,72,51.5"/>
	<circle class="st2" cx="68.2" cy="51.5" r="3.9"/>
	<path class="st1" d="M56.6,59.2c0,2.1-1.7,3.9-3.9,3.9c-2.1,0-3.9-1.7-3.9-3.9c0-2.1,1.7-3.9,3.9-3.9   C54.9,55.4,56.6,57.1,56.6,59.2"/>
	<circle class="st2" cx="52.8" cy="59.2" r="3.9"/>
	<path class="st1" d="M48.9,5.3c0,2.1-1.7,3.9-3.9,3.9c-2.1,0-3.9-1.7-3.9-3.9c0-2.1,1.7-3.9,3.9-3.9C47.2,1.5,48.9,3.2,48.9,5.3"/>
	<circle class="st2" cx="45.1" cy="5.3" r="3.9"/>
	<path class="st1" d="M48.9,13c0,2.1-1.7,3.9-3.9,3.9c-2.1,0-3.9-1.7-3.9-3.9c0-2.1,1.7-3.9,3.9-3.9C47.2,9.2,48.9,10.9,48.9,13"/>
	<circle class="st2" cx="45.1" cy="13" r="3.9"/>
	<path class="st1" d="M48.9,20.7c0,2.1-1.7,3.9-3.9,3.9c-2.1,0-3.9-1.7-3.9-3.9c0-2.1,1.7-3.9,3.9-3.9   C47.2,16.9,48.9,18.6,48.9,20.7"/>
	<circle class="st2" cx="45.1" cy="20.7" r="3.9"/>
	<path class="st1" d="M48.9,28.4c0,2.1-1.7,3.9-3.9,3.9c-2.1,0-3.9-1.7-3.9-3.9c0-2.1,1.7-3.9,3.9-3.9   C47.2,24.6,48.9,26.3,48.9,28.4"/>
	<circle class="st2" cx="45.1" cy="28.4" r="3.9"/>
	<path class="st1" d="M48.9,36.1c0,2.1-1.7,3.9-3.9,3.9c-2.1,0-3.9-1.7-3.9-3.9c0-2.1,1.7-3.9,3.9-3.9C47.2,32.3,48.9,34,48.9,36.1"/>
	<circle class="st2" cx="45.1" cy="36.1" r="3.9"/>
	<path class="st1" d="M48.9,43.8c0,2.1-1.7,3.9-3.9,3.9c-2.1,0-3.9-1.7-3.9-3.9c0-2.1,1.7-3.9,3.9-3.9C47.2,40,48.9,41.7,48.9,43.8"/>
	<circle class="st2" cx="45.1" cy="43.8" r="3.9"/>
	<path class="st1" d="M48.9,51.5c0,2.1-1.7,3.9-3.9,3.9c-2.1,0-3.9-1.7-3.9-3.9c0-2.1,1.7-3.9,3.9-3.9   C47.2,47.7,48.9,49.4,48.9,51.5"/>
	<circle class="st2" cx="45.1" cy="51.5" r="3.9"/>
	<path class="st3" d="M48.9,59.2c0,2.1-1.7,3.9-3.9,3.9c-2.1,0-3.9-1.7-3.9-3.9c0-2.1,1.7-3.9,3.9-3.9   C47.2,55.4,48.9,57.1,48.9,59.2"/>
	<circle class="st2" cx="45.1" cy="59.2" r="3.9"/>
	<path class="st3" d="M48.9,66.9c0,2.1-1.7,3.9-3.9,3.9c-2.1,0-3.9-1.7-3.9-3.9c0-2.1,1.7-3.9,3.9-3.9   C47.2,63.1,48.9,64.8,48.9,66.9"/>
	<circle class="st2" cx="45.1" cy="66.9" r="3.9"/>
	<path class="st3" d="M41.2,28.4c0,2.1-1.7,3.9-3.9,3.9c-2.1,0-3.9-1.7-3.9-3.9c0-2.1,1.7-3.9,3.9-3.9   C39.5,24.6,41.2,26.3,41.2,28.4"/>
	<circle class="st2" cx="37.4" cy="28.4" r="3.9"/>
	<path class="st3" d="M41.2,43.8c0,2.1-1.7,3.9-3.9,3.9c-2.1,0-3.9-1.7-3.9-3.9c0-2.1,1.7-3.9,3.9-3.9C39.5,40,41.2,41.7,41.2,43.8"/>
	<circle class="st2" cx="37.4" cy="43.8" r="3.9"/>
	<path class="st3" d="M41.2,51.5c0,2.1-1.7,3.9-3.9,3.9c-2.1,0-3.9-1.7-3.9-3.9c0-2.1,1.7-3.9,3.9-3.9   C39.5,47.7,41.2,49.4,41.2,51.5"/>
	<circle class="st2" cx="37.4" cy="51.5" r="3.9"/>
	<path class="st3" d="M41.2,59.2c0,2.1-1.7,3.9-3.9,3.9c-2.1,0-3.9-1.7-3.9-3.9c0-2.1,1.7-3.9,3.9-3.9   C39.5,55.4,41.2,57.1,41.2,59.2"/>
	<circle class="st2" cx="37.4" cy="59.2" r="3.9"/>
	<path class="st3" d="M41.2,66.9c0,2.1-1.7,3.9-3.9,3.9c-2.1,0-3.9-1.7-3.9-3.9c0-2.1,1.7-3.9,3.9-3.9   C39.5,63.1,41.2,64.8,41.2,66.9"/>
	<circle class="st2" cx="37.4" cy="66.9" r="3.9"/>
	<path class="st3" d="M33.5,43.8c0,2.1-1.7,3.9-3.9,3.9c-2.1,0-3.9-1.7-3.9-3.9c0-2.1,1.7-3.9,3.9-3.9C31.8,40,33.5,41.7,33.5,43.8"/>
	<path class="st2" d="M33.5,43.8c0,2.1-1.7,3.9-3.9,3.9c-2.1,0-3.9-1.7-3.9-3.9c0-2.1,1.7-3.9,3.9-3.9C31.8,40,33.5,41.7,33.5,43.8z   "/>
	<path class="st3" d="M33.5,51.5c0,2.1-1.7,3.9-3.9,3.9c-2.1,0-3.9-1.7-3.9-3.9c0-2.1,1.7-3.9,3.9-3.9   C31.8,47.7,33.5,49.4,33.5,51.5"/>
	<path class="st2" d="M33.5,51.5c0,2.1-1.7,3.9-3.9,3.9c-2.1,0-3.9-1.7-3.9-3.9c0-2.1,1.7-3.9,3.9-3.9   C31.8,47.7,33.5,49.4,33.5,51.5z"/>
	<path class="st3" d="M33.5,59.2c0,2.1-1.7,3.9-3.9,3.9c-2.1,0-3.9-1.7-3.9-3.9c0-2.1,1.7-3.9,3.9-3.9   C31.8,55.4,33.5,57.1,33.5,59.2"/>
	<path class="st2" d="M33.5,59.2c0,2.1-1.7,3.9-3.9,3.9c-2.1,0-3.9-1.7-3.9-3.9c0-2.1,1.7-3.9,3.9-3.9   C31.8,55.4,33.5,57.1,33.5,59.2z"/>
	<path class="st3" d="M33.5,66.9c0,2.1-1.7,3.9-3.9,3.9c-2.1,0-3.9-1.7-3.9-3.9c0-2.1,1.7-3.9,3.9-3.9   C31.8,63.1,33.5,64.8,33.5,66.9"/>
	<path class="st2" d="M33.5,66.9c0,2.1-1.7,3.9-3.9,3.9c-2.1,0-3.9-1.7-3.9-3.9c0-2.1,1.7-3.9,3.9-3.9   C31.8,63.1,33.5,64.8,33.5,66.9z"/>
	<path class="st3" d="M25.8,43.8c0,2.1-1.7,3.9-3.8,3.9c-2.1,0-3.9-1.7-3.9-3.9c0-2.1,1.7-3.9,3.9-3.9C24.1,40,25.8,41.7,25.8,43.8"/>
	<path class="st2" d="M25.8,43.8c0,2.1-1.7,3.9-3.8,3.9c-2.1,0-3.9-1.7-3.9-3.9c0-2.1,1.7-3.9,3.9-3.9C24.1,40,25.8,41.7,25.8,43.8z   "/>
	<path class="st3" d="M25.8,59.2c0,2.1-1.7,3.9-3.8,3.9c-2.1,0-3.9-1.7-3.9-3.9c0-2.1,1.7-3.9,3.9-3.9   C24.1,55.4,25.8,57.1,25.8,59.2"/>
	<path class="st2" d="M25.8,59.2c0,2.1-1.7,3.9-3.8,3.9c-2.1,0-3.9-1.7-3.9-3.9c0-2.1,1.7-3.9,3.9-3.9   C24.1,55.4,25.8,57.1,25.8,59.2z"/>
	<path class="st3" d="M33.6,28.4c0,2.1-1.7,3.9-3.9,3.9c-2.1,0-3.9-1.7-3.9-3.9c0-2.1,1.7-3.9,3.9-3.9   C31.9,24.6,33.6,26.3,33.6,28.4"/>
	<circle class="st2" cx="29.7" cy="28.4" r="3.9"/>
	<path class="st1" d="M64.4,43.7c0,2.1-1.7,3.9-3.9,3.9c-2.1,0-3.9-1.7-3.9-3.9c0-2.1,1.7-3.9,3.9-3.9   C62.7,39.9,64.4,41.6,64.4,43.7"/>
	<circle class="st2" cx="60.6" cy="43.7" r="3.9"/>
	<path class="st1" d="M72.1,43.7c0,2.1-1.7,3.9-3.9,3.9c-2.1,0-3.9-1.7-3.9-3.9c0-2.1,1.7-3.9,3.9-3.9   C70.4,39.9,72.1,41.6,72.1,43.7"/>
	<circle class="st2" cx="68.3" cy="43.7" r="3.9"/>
	<path class="st3" d="M41.3,36.2c0,2.1-1.7,3.9-3.9,3.9c-2.1,0-3.9-1.7-3.9-3.9c0-2.1,1.7-3.9,3.9-3.9   C39.6,32.3,41.3,34.1,41.3,36.2"/>
	<circle class="st2" cx="37.4" cy="36.2" r="3.9"/>
	<path class="st3" d="M33.6,36.2c0,2.1-1.7,3.9-3.9,3.9c-2.1,0-3.9-1.7-3.9-3.9c0-2.1,1.7-3.9,3.9-3.9   C31.9,32.3,33.6,34.1,33.6,36.2"/>
	<circle class="st2" cx="29.7" cy="36.2" r="3.9"/>
	<path class="st3" d="M25.9,36.2c0,2.1-1.7,3.9-3.8,3.9c-2.1,0-3.9-1.7-3.9-3.9c0-2.1,1.7-3.9,3.9-3.9   C24.2,32.3,25.9,34.1,25.9,36.2"/>
	<path class="st2" d="M25.9,36.2c0,2.1-1.7,3.9-3.8,3.9c-2.1,0-3.9-1.7-3.9-3.9c0-2.1,1.7-3.9,3.9-3.9   C24.2,32.3,25.9,34.1,25.9,36.2z"/>
	<path class="st3" d="M18.2,36.2c0,2.1-1.7,3.9-3.9,3.9c-2.1,0-3.9-1.7-3.9-3.9c0-2.1,1.7-3.9,3.9-3.9   C16.5,32.3,18.2,34.1,18.2,36.2"/>
	<circle class="st2" cx="14.3" cy="36.2" r="3.9"/>
	<path class="st1" d="M79.8,51.5c0,2.1-1.7,3.9-3.9,3.9c-2.1,0-3.9-1.7-3.9-3.9c0-2.1,1.7-3.9,3.9-3.9   C78.1,47.7,79.8,49.4,79.8,51.5"/>
	<circle class="st2" cx="75.9" cy="51.5" r="3.9"/>
</g>
</svg>